# xmcd
#
# Track frame offsets:
#	150
#	19791
#	36834
#	54949
#	67310
#	85032
#	97635
#	107231
#	122865
#	132336
#	150671
#	164975
#
# Disc length: 2380 seconds
#
# Revision: 0
# Processed by: cddbd v1.5.2PL0 Copyright (c) Steve Scherf et al.
# Submitted via: EasyCDDAExtractor 10.2.0.1
#
DISCID=9f094a0c
DTITLE=Various Artist - Gospel Jukebox Vol. 19
DYEAR=2005
DGENRE=Gospel
TTITLE0=Tony Malone - Won't Always Be This Way
TTITLE1=Ricky Russ - Fallen Heros
TTITLE2=Bill Sumpter - It Is No Secret
TTITLE3=Leon Rausch - Turn Your Radio On
TTITLE4=Faithful Heart - In Reverence To Him
TTITLE5=Libby Cannon - You Gotta Let It Go
TTITLE6=Finley Duke - Jesus Is My Rock
TTITLE7=Sherry Moyers - The River Of Jordan
TTITLE8=B.J. Bledsoe - Hey Flesh
TTITLE9=Carolan Freeman - Jesus Came And Mended Me
TTITLE10=Joe Price - From Rosa's Barn To The3 Cross
TTITLE11=Lin Butler - I've Been To The House Of The Rising Sun
EXTD=
EXTT0=
EXTT1=
EXTT2=
EXTT3=
EXTT4=
EXTT5=
EXTT6=
EXTT7=
EXTT8=
EXTT9=
EXTT10=
EXTT11=
PLAYORDER=
